<mxfile host="app.diagrams.net" modified="2023-04-24T05:32:12.229Z" agent="Mozilla/5.0 (Windows NT 10.0; Win64; x64) AppleWebKit/537.36 (KHTML, like Gecko) Chrome/112.0.0.0 Safari/537.36" etag="mWc6_AdGTINjXfrxPdpQ" version="21.1.8" type="github">
  <diagram name="페이지-1" id="2NNPLGp1lm4Bou1OKYgu">
    <mxGraphModel dx="556" dy="1643" grid="1" gridSize="10" guides="1" tooltips="1" connect="1" arrows="1" fold="1" page="1" pageScale="1" pageWidth="827" pageHeight="1169" math="0" shadow="0">
      <root>
        <mxCell id="0" />
        <mxCell id="1" parent="0" />
        <mxCell id="XNBevkbxn_FhqQ0xVa6--7" value="&lt;div&gt;스토리? 미연시 느낌?&lt;/div&gt;&lt;div&gt;여러 해석 여지가 있음&lt;/div&gt;&lt;div&gt;1. 아래 어두운 배경에 글이 나오고 화자의&lt;/div&gt;&lt;div&gt;그림이 있는 것인가?&lt;/div&gt;&lt;div&gt;: excel -&amp;gt; json -&amp;gt; C#&lt;/div&gt;&lt;div&gt;&lt;br&gt;&lt;/div&gt;&lt;div&gt;+ 분기가 존재해서 트리구조로 내용이 파생되는가?&lt;/div&gt;&lt;div&gt;&lt;br&gt;&lt;/div&gt;&lt;div&gt;2. 인트로처럼 모든 스토리가 만화 형식인가?&lt;/div&gt;&lt;div&gt;: 이미지임으로 text 처리가 전혀 필요 없음&lt;/div&gt;&lt;div&gt;&lt;br&gt;&lt;/div&gt;&lt;div&gt;&amp;nbsp;3. 스토리형 (+ 분기형) 이라면 스토리를 어디까지 봤는지 저장해야하는가? 그렇다면 그 정확도는? (챕터별로 기억, 문장별로 기억, 마지막 프린트 한 단어끝을 기억, 이전 분기점까지를 기억 후 거기서 부터 시작)&lt;/div&gt;&lt;div&gt;&lt;br&gt;&lt;/div&gt;" style="html=1;whiteSpace=wrap;align=left;" vertex="1" parent="1">
          <mxGeometry x="50" y="-200" width="330" height="330" as="geometry" />
        </mxCell>
        <mxCell id="XNBevkbxn_FhqQ0xVa6--8" value="아이템의 갯수, 종류, 등은 모두 확정 된 것인가?&lt;br&gt;(100% 확정인지 아닌지는 확실히 해야함 모르겠으면 무조껀 확정이 아닌것으로 )&lt;br&gt;&lt;br&gt;아이템은 단순 수집 요소인가? 터치(사용)후 사라지는 1회용 아이템인가? 속도, 점프 횟수, 점프 파워 등 을 올려주는 지속형 아이템인가? 이것들이 섞여있으며 그들은 명시적으로 구분이 가능한가? 이들은 섞여있으며 명시적으로 확인이 불가능한가? (RPG 인벤토리 같이 같은 위치에 물약과 무기가 같이 들어있듯)&amp;nbsp;&lt;br&gt;&lt;br&gt;스킨은 게임 중 갈아낄 수 있나? 첫 화면에서 스킨이 보일 여지가 있는가?&lt;br&gt;&lt;br&gt;&amp;nbsp;" style="html=1;whiteSpace=wrap;align=left;" vertex="1" parent="1">
          <mxGeometry x="60" y="210" width="280" height="270" as="geometry" />
        </mxCell>
        <mxCell id="XNBevkbxn_FhqQ0xVa6--9" value="수집한 꽃나무가 뭐지?" style="html=1;whiteSpace=wrap;align=left;" vertex="1" parent="1">
          <mxGeometry x="55" y="500" width="290" height="140" as="geometry" />
        </mxCell>
        <mxCell id="XNBevkbxn_FhqQ0xVa6--10" value="클리어 요소는 언제나 같나? &lt;br&gt;&lt;br&gt;특별 퀘스트는 어떤 요소들을 통제할 것인가? &lt;br&gt;특별 퀘스트는 &lt;br&gt;한 스테이지에 최대,최소 몇 개가 있을 수 있는가?&lt;br&gt;특별 퀘스트의 갯수가 바뀔 수 있는가?&lt;br&gt;&amp;nbsp;&lt;br&gt;특히 이 퀘스트는 일반화 하기 시작하면 난이도가 극단적으로 상승하기에 모든 통제변인을 반드시 확인 하고 구현 시작해야한다.&lt;br&gt;알아야 하는 정보 &lt;br&gt;EX)&lt;br&gt;퀘스트 3번은 점프가 5번 이하인 퀘스트가 있어요 X&lt;br&gt;퀘스트 요소 중 점프 n회 이하인 퀘스트가 있어요 O&lt;br&gt;&lt;br&gt;&lt;br&gt;퀘스트의 경우는 매몰될 경우 게임 터지기 딱 좋은 부분이기 때문에 기획자가 명확한 기획 없이 그냥 있으면 좋겠다 라고 생각하고 있다면 못한다고 명확하게 전달해야한다. Why? &lt;br&gt;&lt;br&gt;아.... 생각해 보니 jump숫자도 세고 싶네요 -&amp;gt; jump 다 뜯어고쳐야함&lt;br&gt;아.... 생각해 보니 생존 시간도 세고 싶네요 -&amp;gt; update 뜯어야함&lt;br style=&quot;border-color: var(--border-color);&quot;&gt;아.... 생각해 보니 개화(?)도 세고 싶네요 -&amp;gt; 시스템 뜯어야함&lt;br&gt;&lt;br&gt;-&amp;gt; 한 두 군데에서 터지기 시작하면 거기서 프로젝트 종료일 가능성 농후&lt;br&gt;&lt;br style=&quot;border-color: var(--border-color);&quot;&gt;&amp;nbsp;" style="html=1;whiteSpace=wrap;align=left;" vertex="1" parent="1">
          <mxGeometry x="44" y="670" width="446" height="390" as="geometry" />
        </mxCell>
        <mxCell id="XNBevkbxn_FhqQ0xVa6--11" value="선택된 꽃의 디테일? 꽃 종류가 n 가지인가? 꽃이라는 시스템은 한가지인데 스킨이 렌덤으로 생성인가?&amp;nbsp;&lt;br&gt;&lt;br&gt;상점에 대한 이야기가 없는데 아이템은 구매로 획득(재화가 존재함) 인가?상점은 그럼 어디있는가?&amp;nbsp;&lt;br&gt;아니면 게임 중 획득가능한가? 획득은 렌덤인가?&amp;nbsp;" style="html=1;whiteSpace=wrap;align=left;" vertex="1" parent="1">
          <mxGeometry x="60" y="1130" width="330" height="260" as="geometry" />
        </mxCell>
        <mxCell id="XNBevkbxn_FhqQ0xVa6--12" value="모드 전환은 언제나 가능한가? 어떤 선행 조건이 존재하는가?&amp;nbsp;" style="html=1;whiteSpace=wrap;" vertex="1" parent="1">
          <mxGeometry x="80" y="1460" width="390" height="200" as="geometry" />
        </mxCell>
        <mxCell id="XNBevkbxn_FhqQ0xVa6--13" value="튜토리얼은 이미지인가? 인 게임에서 어떤 플레이를 보여줘야 하는가?&amp;nbsp;" style="html=1;whiteSpace=wrap;" vertex="1" parent="1">
          <mxGeometry x="80" y="1680" width="390" height="200" as="geometry" />
        </mxCell>
        <mxCell id="XNBevkbxn_FhqQ0xVa6--14" value="꽃잎이 핑그르르 떨어지는건 3D오브젝트를 돌리는 것 인가?&amp;nbsp;&lt;br&gt;2D 애니메이션은 아트 팀이 그려 주는 것인가?&amp;nbsp;&lt;br&gt;&lt;br&gt;만약 3D로 떨어진다면 궤적은 어떤 궤적을 그리는것이 좋은가? 사이클로이드? 끌개? 만약 3D라면 반드시 아트팀이 Unity 깔아서 텍스쳐 입혀서 전달 받도록&amp;nbsp;&lt;br&gt;&lt;br&gt;이건 2D애니메이션으로 받아야함&lt;br&gt;" style="html=1;whiteSpace=wrap;" vertex="1" parent="1">
          <mxGeometry x="80" y="1910" width="390" height="200" as="geometry" />
        </mxCell>
        <mxCell id="XNBevkbxn_FhqQ0xVa6--15" value="맵은 쿠키런 같은 맵을 생각 중 이다. 맞다면&amp;nbsp;" style="html=1;whiteSpace=wrap;" vertex="1" parent="1">
          <mxGeometry x="80" y="2130" width="390" height="200" as="geometry" />
        </mxCell>
      </root>
    </mxGraphModel>
  </diagram>
</mxfile>
